{"asset":{"version":"2.0","generator":"babylon.js glTF exporter for 3ds max 2015 v1.3.33"},"scene":0,"scenes":[{"nodes":[0,1],"extensions":{}}],"nodes":[{"mesh":0,"translation":[0.0,0.0,0.0],"rotation":[0.49999997,-0.4999999,0.499999851,0.500000238],"scale":[1.0,1.0,1.0],"name":"070_Полка_L9964"},{"translation":[0.0,0.0,0.0],"rotation":[0.0,0.0,0.0,1.0],"scale":[1.0,1.0,1.0],"name":"Default light"}],"meshes":[{"primitives":[{"attributes":{"POSITION":1,"NORMAL":2,"TEXCOORD_0":3},"indices":0,"mode":4,"material":0}],"name":"070_Полка_L9964"}],"accessors":[{"bufferView":0,"componentType":5123,"count":10104,"type":"SCALAR","name":"accessorIndices"},{"bufferView":1,"componentType":5126,"count":10104,"max":[24.05577,23.4927139,-3.23158179E-06],"min":[-24.0557728,-23.492712,-1.50332987],"type":"VEC3","name":"accessorPositions"},{"bufferView":1,"byteOffset":121248,"componentType":5126,"count":10104,"type":"VEC3","name":"accessorNormals"},{"bufferView":2,"componentType":5126,"count":10104,"type":"VEC2","name":"accessorUVs"}],"bufferViews":[{"buffer":0,"byteLength":20208,"name":"bufferViewScalar"},{"buffer":0,"byteOffset":20208,"byteLength":242496,"byteStride":12,"name":"bufferViewFloatVec3"},{"buffer":0,"byteOffset":262704,"byteLength":80832,"byteStride":8,"name":"bufferViewFloatVec2"}],"buffers":[{"uri":"polka.bin","byteLength":343536}],"materials":[{"pbrMetallicRoughness":{"baseColorFactor":[0.6125001,0.6125001,0.6125001,1.0],"metallicFactor":0.0,"roughnessFactor":0.9},"emissiveFactor":[0.0,0.0,0.0],"alphaMode":"OPAQUE","name":"Material #29"}]}