{"asset":{"version":"2.0","generator":"babylon.js glTF exporter for 3ds max 2015 v1.3.33"},"scene":0,"scenes":[{"nodes":[0,1,2],"extensions":{}}],"nodes":[{"mesh":0,"translation":[0.0,0.0,0.0],"rotation":[0.0,0.0,0.0,1.0],"scale":[1.0,1.0,1.0],"name":"Box001"},{"mesh":1,"translation":[-23.5857849,97.0928,-19.7975025],"rotation":[0.0,0.0,-0.7071068,0.7071068],"scale":[1.0,1.0,1.0],"name":"marker"},{"translation":[0.0,0.0,0.0],"rotation":[0.0,0.0,0.0,1.0],"scale":[1.0,1.0,1.0],"name":"Default light"}],"meshes":[{"primitives":[{"attributes":{"POSITION":1,"NORMAL":2,"TEXCOORD_0":3},"indices":0,"mode":4,"material":0}],"name":"Box001"},{"primitives":[{"attributes":{"POSITION":5,"NORMAL":6,"TEXCOORD_0":7},"indices":4,"mode":4,"material":1}],"name":"marker"}],"accessors":[{"bufferView":0,"componentType":5123,"count":36996,"type":"SCALAR","name":"accessorIndices"},{"bufferView":1,"componentType":5126,"count":36996,"max":[25.0000076,100.0,25.0],"min":[-25.0000076,0.0,-25.0000076],"type":"VEC3","name":"accessorPositions"},{"bufferView":1,"byteOffset":443952,"componentType":5126,"count":36996,"type":"VEC3","name":"accessorNormals"},{"bufferView":2,"componentType":5126,"count":36996,"type":"VEC2","name":"accessorUVs"},{"bufferView":0,"byteOffset":73992,"componentType":5123,"count":36,"type":"SCALAR","name":"accessorIndices"},{"bufferView":1,"byteOffset":887904,"componentType":5126,"count":36,"max":[0.25,0.5,0.25],"min":[-0.25,0.0,-0.25],"type":"VEC3","name":"accessorPositions"},{"bufferView":1,"byteOffset":888336,"componentType":5126,"count":36,"type":"VEC3","name":"accessorNormals"},{"bufferView":2,"byteOffset":295968,"componentType":5126,"count":36,"type":"VEC2","name":"accessorUVs"}],"bufferViews":[{"buffer":0,"byteLength":74064,"name":"bufferViewScalar"},{"buffer":0,"byteOffset":74064,"byteLength":888768,"byteStride":12,"name":"bufferViewFloatVec3"},{"buffer":0,"byteOffset":962832,"byteLength":296256,"byteStride":8,"name":"bufferViewFloatVec2"}],"buffers":[{"uri":"box2.bin","byteLength":1259088}],"materials":[{"pbrMetallicRoughness":{"baseColorFactor":[0.6125001,0.6125001,0.6125001,1.0],"metallicFactor":0.0,"roughnessFactor":0.9},"emissiveFactor":[0.0,0.0,0.0],"alphaMode":"OPAQUE","name":"m_base0"},{"pbrMetallicRoughness":{"baseColorFactor":[0.0285947751,0.0285947751,0.0285947751,1.0],"metallicFactor":0.0,"roughnessFactor":0.9},"emissiveFactor":[0.0,0.0,0.0],"alphaMode":"OPAQUE","name":"m_marker"}]}